<svg width="94" height="94" viewBox="0 0 94 94" fill="none" xmlns="http://www.w3.org/2000/svg">
<path d="M47.0002 7.83334C25.369 7.83334 7.8335 25.3689 7.8335 47C7.8335 68.6312 25.369 86.1667 47.0002 86.1667C68.6313 86.1667 86.1668 68.6312 86.1668 47C86.1668 25.3689 68.6313 7.83334 47.0002 7.83334ZM47.0002 25.4583C48.3521 25.4583 49.4481 26.5543 49.4481 27.9063V52.3854C49.4481 53.7374 48.3521 54.8333 47.0002 54.8333C45.6482 54.8333 44.5522 53.7374 44.5522 52.3854V27.9063C44.5522 26.5543 45.6482 25.4583 47.0002 25.4583ZM47.0002 66.5833C44.837 66.5833 43.0835 64.8298 43.0835 62.6667C43.0835 60.5036 44.837 58.75 47.0002 58.75C49.1633 58.75 50.9168 60.5036 50.9168 62.6667C50.9168 64.8298 49.1633 66.5833 47.0002 66.5833Z" fill="#F5F3EC"/>
</svg>
