<svg width="94" height="94" viewBox="0 0 94 94" fill="none" xmlns="http://www.w3.org/2000/svg">
<path d="M50.3616 55.9025L79.4773 85.0195C81.0068 86.5491 83.4865 86.549 85.016 85.0195C86.5454 83.4899 86.5454 81.01 85.0159 79.4805L14.5192 8.98048C12.9897 7.45094 10.51 7.45097 8.98056 8.98053C7.45112 10.5101 7.45115 12.99 8.98061 14.5195L21.1091 26.6486C18.5914 28.3289 16.2009 30.2802 13.9788 32.5025C12.0637 34.4178 10.2131 36.6807 8.53687 39.0971C7.30397 40.8744 7.7452 43.3147 9.52239 44.5477C11.2996 45.7807 13.7397 45.3394 14.9726 43.5621C16.396 41.5102 17.9541 39.6049 19.5175 38.0415C21.754 35.8048 24.1954 33.898 26.7813 32.3211L31.2947 36.8347C28.9138 38.2034 26.6721 39.9052 24.6373 41.9402C22.227 44.3506 20.2599 47.0736 18.7482 50.0623C17.772 51.9925 18.5452 54.3488 20.4753 55.3251C22.4054 56.3014 24.7615 55.5281 25.7378 53.5979C26.8763 51.3468 28.3545 49.3007 30.1759 47.4792C32.2436 45.4114 34.5947 43.7998 37.1041 42.6443L42.6167 48.1572C38.9638 48.9801 35.4926 50.8134 32.6492 53.6571C30.8472 55.4592 29.4134 57.6102 28.3793 59.9736C27.5123 61.9553 28.4158 64.2647 30.3973 65.1318C32.3789 65.9989 34.6882 65.0954 35.5553 63.1137C36.2088 61.62 37.0981 60.2859 38.1878 59.1961C41.4865 55.8972 46.1527 54.7993 50.3616 55.9025ZM45.1441 32.6787L53.8707 41.4061C57.6219 42.4972 61.1591 44.5215 64.1165 47.4792C65.8557 49.2184 67.396 51.3767 68.5704 53.673C69.5553 55.5988 71.9149 56.3615 73.8406 55.3765C75.7663 54.3915 76.5289 52.0318 75.544 50.1059C74.0075 47.1018 71.9908 44.276 69.6552 41.9402C62.93 35.2146 53.9444 32.1274 45.1441 32.6787ZM33.3301 20.8637L39.798 27.3322C51.9694 25.054 65.0197 28.6238 74.4367 38.0415C76.0834 39.6883 77.6572 41.5927 79.0268 43.5772C80.2554 45.3575 82.6945 45.8046 84.4747 44.5759C86.2548 43.3472 86.7019 40.908 85.4733 39.1277C83.8405 36.7617 81.9649 34.4921 79.9754 32.5025C67.3512 19.8774 49.2936 15.9978 33.3301 20.8637ZM51.1594 64.3941C53.4552 66.69 53.4552 70.4125 51.1594 72.7084C48.8636 75.0043 45.1414 75.0043 42.8457 72.7084C40.5499 70.4125 40.5499 66.69 42.8457 64.3941C45.1414 62.0982 48.8636 62.0982 51.1594 64.3941Z" fill="#F5F3EC"/>
</svg>
