<svg width="150" height="150" viewBox="0 0 150 150" fill="none" xmlns="http://www.w3.org/2000/svg">
<path d="M41.0081 0H36.3306V4.67757H41.0081V0Z" fill="#585D47"/>
<path d="M45.5496 0H40.8721V4.67757H45.5496V0Z" fill="#585D47"/>
<path d="M50.0907 0H45.4131V4.67757H50.0907V0Z" fill="#585D47"/>
<path d="M59.1732 0H54.4956V4.67757H59.1732V0Z" fill="#585D47"/>
<path d="M63.7147 0H59.0371V4.67757H63.7147V0Z" fill="#585D47"/>
<path d="M72.7977 0H68.1201V4.67757H72.7977V0Z" fill="#585D47"/>
<path d="M77.3387 0H72.6611V4.67757H77.3387V0Z" fill="#585D47"/>
<path d="M90.9627 0H86.2852V4.67757H90.9627V0Z" fill="#585D47"/>
<path d="M100.045 0H95.3677V4.67757H100.045V0Z" fill="#585D47"/>
<path d="M104.587 0H99.9092V4.67757H104.587V0Z" fill="#585D47"/>
<path d="M109.128 0H104.451V4.67757H109.128V0Z" fill="#585D47"/>
<path d="M113.669 0H108.992V4.67757H113.669V0Z" fill="#585D47"/>
<path d="M45.5496 4.54138H40.8721V9.21895H45.5496V4.54138Z" fill="#585D47"/>
<path d="M50.0907 4.54138H45.4131V9.21895H50.0907V4.54138Z" fill="#585D47"/>
<path d="M54.6322 4.54138H49.9546V9.21895H54.6322V4.54138Z" fill="#585D47"/>
<path d="M59.1732 4.54138H54.4956V9.21895H59.1732V4.54138Z" fill="#585D47"/>
<path d="M77.3387 4.54138H72.6611V9.21895H77.3387V4.54138Z" fill="#585D47"/>
<path d="M86.4212 4.54138H81.7437V9.21895H86.4212V4.54138Z" fill="#585D47"/>
<path d="M95.5042 4.54138H90.8267V9.21895H95.5042V4.54138Z" fill="#585D47"/>
<path d="M100.045 4.54138H95.3677V9.21895H100.045V4.54138Z" fill="#585D47"/>
<path d="M113.669 4.54138H108.992V9.21895H113.669V4.54138Z" fill="#585D47"/>
<path d="M54.6322 9.08258H49.9546V13.7601H54.6322V9.08258Z" fill="#585D47"/>
<path d="M59.1732 9.08258H54.4956V13.7601H59.1732V9.08258Z" fill="#585D47"/>
<path d="M63.7147 9.08258H59.0371V13.7601H63.7147V9.08258Z" fill="#585D47"/>
<path d="M77.3387 9.08258H72.6611V13.7601H77.3387V9.08258Z" fill="#585D47"/>
<path d="M95.5042 9.08258H90.8267V13.7601H95.5042V9.08258Z" fill="#585D47"/>
<path d="M100.045 9.08258H95.3677V13.7601H100.045V9.08258Z" fill="#585D47"/>
<path d="M104.587 9.08258H99.9092V13.7601H104.587V9.08258Z" fill="#585D47"/>
<path d="M109.128 9.08258H104.451V13.7601H109.128V9.08258Z" fill="#585D47"/>
<path d="M45.5496 13.624H40.8721V18.3015H45.5496V13.624Z" fill="#585D47"/>
<path d="M50.0907 13.624H45.4131V18.3015H50.0907V13.624Z" fill="#585D47"/>
<path d="M54.6322 13.624H49.9546V18.3015H54.6322V13.624Z" fill="#585D47"/>
<path d="M59.1732 13.624H54.4956V18.3015H59.1732V13.624Z" fill="#585D47"/>
<path d="M68.2562 13.624H63.5786V18.3015H68.2562V13.624Z" fill="#585D47"/>
<path d="M72.7977 13.624H68.1201V18.3015H72.7977V13.624Z" fill="#585D47"/>
<path d="M77.3387 13.624H72.6611V18.3015H77.3387V13.624Z" fill="#585D47"/>
<path d="M86.4212 13.624H81.7437V18.3015H86.4212V13.624Z" fill="#585D47"/>
<path d="M100.045 13.624H95.3677V18.3015H100.045V13.624Z" fill="#585D47"/>
<path d="M113.669 13.624H108.992V18.3015H113.669V13.624Z" fill="#585D47"/>
<path d="M41.0081 18.1653H36.3306V22.8429H41.0081V18.1653Z" fill="#585D47"/>
<path d="M45.5496 18.1653H40.8721V22.8429H45.5496V18.1653Z" fill="#585D47"/>
<path d="M50.0907 18.1653H45.4131V22.8429H50.0907V18.1653Z" fill="#585D47"/>
<path d="M54.6322 18.1653H49.9546V22.8429H54.6322V18.1653Z" fill="#585D47"/>
<path d="M59.1732 18.1653H54.4956V22.8429H59.1732V18.1653Z" fill="#585D47"/>
<path d="M68.2562 18.1653H63.5786V22.8429H68.2562V18.1653Z" fill="#585D47"/>
<path d="M95.5042 18.1653H90.8267V22.8429H95.5042V18.1653Z" fill="#585D47"/>
<path d="M100.045 18.1653H95.3677V22.8429H100.045V18.1653Z" fill="#585D47"/>
<path d="M104.587 18.1653H99.9092V22.8429H104.587V18.1653Z" fill="#585D47"/>
<path d="M41.0081 22.7066H36.3306V27.3842H41.0081V22.7066Z" fill="#585D47"/>
<path d="M50.0907 22.7066H45.4131V27.3842H50.0907V22.7066Z" fill="#585D47"/>
<path d="M59.1732 22.7066H54.4956V27.3842H59.1732V22.7066Z" fill="#585D47"/>
<path d="M72.7977 22.7066H68.1201V27.3842H72.7977V22.7066Z" fill="#585D47"/>
<path d="M86.4212 22.7066H81.7437V27.3842H86.4212V22.7066Z" fill="#585D47"/>
<path d="M90.9627 22.7066H86.2852V27.3842H90.9627V22.7066Z" fill="#585D47"/>
<path d="M109.128 22.7066H104.451V27.3842H109.128V22.7066Z" fill="#585D47"/>
<path d="M113.669 22.7066H108.992V27.3842H113.669V22.7066Z" fill="#585D47"/>
<path d="M41.0081 27.248H36.3306V31.9256H41.0081V27.248Z" fill="#585D47"/>
<path d="M50.0907 27.248H45.4131V31.9256H50.0907V27.248Z" fill="#585D47"/>
<path d="M59.1732 27.248H54.4956V31.9256H59.1732V27.248Z" fill="#585D47"/>
<path d="M68.2562 27.248H63.5786V31.9256H68.2562V27.248Z" fill="#585D47"/>
<path d="M77.3387 27.248H72.6611V31.9256H77.3387V27.248Z" fill="#585D47"/>
<path d="M86.4212 27.248H81.7437V31.9256H86.4212V27.248Z" fill="#585D47"/>
<path d="M95.5042 27.248H90.8267V31.9256H95.5042V27.248Z" fill="#585D47"/>
<path d="M104.587 27.248H99.9092V31.9256H104.587V27.248Z" fill="#585D47"/>
<path d="M113.669 27.248H108.992V31.9256H113.669V27.248Z" fill="#585D47"/>
<path d="M45.5496 31.7893H40.8721V36.4669H45.5496V31.7893Z" fill="#585D47"/>
<path d="M50.0907 31.7893H45.4131V36.4669H50.0907V31.7893Z" fill="#585D47"/>
<path d="M59.1732 31.7893H54.4956V36.4669H59.1732V31.7893Z" fill="#585D47"/>
<path d="M63.7147 31.7893H59.0371V36.4669H63.7147V31.7893Z" fill="#585D47"/>
<path d="M68.2562 31.7893H63.5786V36.4669H68.2562V31.7893Z" fill="#585D47"/>
<path d="M72.7977 31.7893H68.1201V36.4669H72.7977V31.7893Z" fill="#585D47"/>
<path d="M90.9627 31.7893H86.2852V36.4669H90.9627V31.7893Z" fill="#585D47"/>
<path d="M95.5042 31.7893H90.8267V36.4669H95.5042V31.7893Z" fill="#585D47"/>
<path d="M100.045 31.7893H95.3677V36.4669H100.045V31.7893Z" fill="#585D47"/>
<path d="M109.128 31.7893H104.451V36.4669H109.128V31.7893Z" fill="#585D47"/>
<path d="M9.21907 36.3306H4.5415V41.0081H9.21907V36.3306Z" fill="#585D47"/>
<path d="M13.7601 36.3306H9.08252V41.0081H13.7601V36.3306Z" fill="#585D47"/>
<path d="M18.3016 36.3306H13.624V41.0081H18.3016V36.3306Z" fill="#585D47"/>
<path d="M22.8426 36.3306H18.165V41.0081H22.8426V36.3306Z" fill="#585D47"/>
<path d="M27.3841 36.3306H22.7065V41.0081H27.3841V36.3306Z" fill="#585D47"/>
<path d="M31.9256 36.3306H27.248V41.0081H31.9256V36.3306Z" fill="#585D47"/>
<path d="M36.4666 36.3306H31.7891V41.0081H36.4666V36.3306Z" fill="#585D47"/>
<path d="M45.5496 36.3306H40.8721V41.0081H45.5496V36.3306Z" fill="#585D47"/>
<path d="M59.1732 36.3306H54.4956V41.0081H59.1732V36.3306Z" fill="#585D47"/>
<path d="M72.7977 36.3306H68.1201V41.0081H72.7977V36.3306Z" fill="#585D47"/>
<path d="M77.3387 36.3306H72.6611V41.0081H77.3387V36.3306Z" fill="#585D47"/>
<path d="M81.8797 36.3306H77.2021V41.0081H81.8797V36.3306Z" fill="#585D47"/>
<path d="M86.4212 36.3306H81.7437V41.0081H86.4212V36.3306Z" fill="#585D47"/>
<path d="M90.9627 36.3306H86.2852V41.0081H90.9627V36.3306Z" fill="#585D47"/>
<path d="M104.587 36.3306H99.9092V41.0081H104.587V36.3306Z" fill="#585D47"/>
<path d="M109.128 36.3306H104.451V41.0081H109.128V36.3306Z" fill="#585D47"/>
<path d="M113.669 36.3306H108.992V41.0081H113.669V36.3306Z" fill="#585D47"/>
<path d="M127.293 36.3306H122.616V41.0081H127.293V36.3306Z" fill="#585D47"/>
<path d="M131.835 36.3306H127.157V41.0081H131.835V36.3306Z" fill="#585D47"/>
<path d="M150 36.3306H145.322V41.0081H150V36.3306Z" fill="#585D47"/>
<path d="M4.67757 40.8719H0V45.5495H4.67757V40.8719Z" fill="#585D47"/>
<path d="M27.3841 40.8719H22.7065V45.5495H27.3841V40.8719Z" fill="#585D47"/>
<path d="M45.5496 40.8719H40.8721V45.5495H45.5496V40.8719Z" fill="#585D47"/>
<path d="M59.1732 40.8719H54.4956V45.5495H59.1732V40.8719Z" fill="#585D47"/>
<path d="M68.2562 40.8719H63.5786V45.5495H68.2562V40.8719Z" fill="#585D47"/>
<path d="M72.7977 40.8719H68.1201V45.5495H72.7977V40.8719Z" fill="#585D47"/>
<path d="M77.3387 40.8719H72.6611V45.5495H77.3387V40.8719Z" fill="#585D47"/>
<path d="M81.8797 40.8719H77.2021V45.5495H81.8797V40.8719Z" fill="#585D47"/>
<path d="M90.9627 40.8719H86.2852V45.5495H90.9627V40.8719Z" fill="#585D47"/>
<path d="M95.5042 40.8719H90.8267V45.5495H95.5042V40.8719Z" fill="#585D47"/>
<path d="M109.128 40.8719H104.451V45.5495H109.128V40.8719Z" fill="#585D47"/>
<path d="M118.211 40.8719H113.533V45.5495H118.211V40.8719Z" fill="#585D47"/>
<path d="M122.752 40.8719H118.074V45.5495H122.752V40.8719Z" fill="#585D47"/>
<path d="M127.293 40.8719H122.616V45.5495H127.293V40.8719Z" fill="#585D47"/>
<path d="M140.917 40.8719H136.24V45.5495H140.917V40.8719Z" fill="#585D47"/>
<path d="M145.458 40.8719H140.781V45.5495H145.458V40.8719Z" fill="#585D47"/>
<path d="M13.7601 45.4133H9.08252V50.0909H13.7601V45.4133Z" fill="#585D47"/>
<path d="M31.9256 45.4133H27.248V50.0909H31.9256V45.4133Z" fill="#585D47"/>
<path d="M36.4666 45.4133H31.7891V50.0909H36.4666V45.4133Z" fill="#585D47"/>
<path d="M50.0907 45.4133H45.4131V50.0909H50.0907V45.4133Z" fill="#585D47"/>
<path d="M54.6322 45.4133H49.9546V50.0909H54.6322V45.4133Z" fill="#585D47"/>
<path d="M59.1732 45.4133H54.4956V50.0909H59.1732V45.4133Z" fill="#585D47"/>
<path d="M63.7147 45.4133H59.0371V50.0909H63.7147V45.4133Z" fill="#585D47"/>
<path d="M77.3387 45.4133H72.6611V50.0909H77.3387V45.4133Z" fill="#585D47"/>
<path d="M81.8797 45.4133H77.2021V50.0909H81.8797V45.4133Z" fill="#585D47"/>
<path d="M104.587 45.4133H99.9092V50.0909H104.587V45.4133Z" fill="#585D47"/>
<path d="M127.293 45.4133H122.616V50.0909H127.293V45.4133Z" fill="#585D47"/>
<path d="M131.835 45.4133H127.157V50.0909H131.835V45.4133Z" fill="#585D47"/>
<path d="M136.376 45.4133H131.699V50.0909H136.376V45.4133Z" fill="#585D47"/>
<path d="M4.67757 49.9545H0V54.6321H4.67757V49.9545Z" fill="#585D47"/>
<path d="M22.8426 49.9545H18.165V54.6321H22.8426V49.9545Z" fill="#585D47"/>
<path d="M36.4666 49.9545H31.7891V54.6321H36.4666V49.9545Z" fill="#585D47"/>
<path d="M41.0081 49.9545H36.3306V54.6321H41.0081V49.9545Z" fill="#585D47"/>
<path d="M68.2562 49.9545H63.5786V54.6321H68.2562V49.9545Z" fill="#585D47"/>
<path d="M77.3387 49.9545H72.6611V54.6321H77.3387V49.9545Z" fill="#585D47"/>
<path d="M81.8797 49.9545H77.2021V54.6321H81.8797V49.9545Z" fill="#585D47"/>
<path d="M86.4212 49.9545H81.7437V54.6321H86.4212V49.9545Z" fill="#585D47"/>
<path d="M95.5042 49.9545H90.8267V54.6321H95.5042V49.9545Z" fill="#585D47"/>
<path d="M118.211 49.9545H113.533V54.6321H118.211V49.9545Z" fill="#585D47"/>
<path d="M127.293 49.9545H122.616V54.6321H127.293V49.9545Z" fill="#585D47"/>
<path d="M136.376 49.9545H131.699V54.6321H136.376V49.9545Z" fill="#585D47"/>
<path d="M140.917 49.9545H136.24V54.6321H140.917V49.9545Z" fill="#585D47"/>
<path d="M9.21907 54.4959H4.5415V59.1735H9.21907V54.4959Z" fill="#585D47"/>
<path d="M22.8426 54.4959H18.165V59.1735H22.8426V54.4959Z" fill="#585D47"/>
<path d="M31.9256 54.4959H27.248V59.1735H31.9256V54.4959Z" fill="#585D47"/>
<path d="M36.4666 54.4959H31.7891V59.1735H36.4666V54.4959Z" fill="#585D47"/>
<path d="M54.6322 54.4959H49.9546V59.1735H54.6322V54.4959Z" fill="#585D47"/>
<path d="M59.1732 54.4959H54.4956V59.1735H59.1732V54.4959Z" fill="#585D47"/>
<path d="M68.2562 54.4959H63.5786V59.1735H68.2562V54.4959Z" fill="#585D47"/>
<path d="M77.3387 54.4959H72.6611V59.1735H77.3387V54.4959Z" fill="#585D47"/>
<path d="M95.5042 54.4959H90.8267V59.1735H95.5042V54.4959Z" fill="#585D47"/>
<path d="M100.045 54.4959H95.3677V59.1735H100.045V54.4959Z" fill="#585D47"/>
<path d="M104.587 54.4959H99.9092V59.1735H104.587V54.4959Z" fill="#585D47"/>
<path d="M131.835 54.4959H127.157V59.1735H131.835V54.4959Z" fill="#585D47"/>
<path d="M13.7601 59.0373H9.08252V63.7149H13.7601V59.0373Z" fill="#585D47"/>
<path d="M18.3016 59.0373H13.624V63.7149H18.3016V59.0373Z" fill="#585D47"/>
<path d="M27.3841 59.0373H22.7065V63.7149H27.3841V59.0373Z" fill="#585D47"/>
<path d="M36.4666 59.0373H31.7891V63.7149H36.4666V59.0373Z" fill="#585D47"/>
<path d="M41.0081 59.0373H36.3306V63.7149H41.0081V59.0373Z" fill="#585D47"/>
<path d="M45.5496 59.0373H40.8721V63.7149H45.5496V59.0373Z" fill="#585D47"/>
<path d="M63.7147 59.0373H59.0371V63.7149H63.7147V59.0373Z" fill="#585D47"/>
<path d="M72.7977 59.0373H68.1201V63.7149H72.7977V59.0373Z" fill="#585D47"/>
<path d="M77.3387 59.0373H72.6611V63.7149H77.3387V59.0373Z" fill="#585D47"/>
<path d="M81.8797 59.0373H77.2021V63.7149H81.8797V59.0373Z" fill="#585D47"/>
<path d="M86.4212 59.0373H81.7437V63.7149H86.4212V59.0373Z" fill="#585D47"/>
<path d="M100.045 59.0373H95.3677V63.7149H100.045V59.0373Z" fill="#585D47"/>
<path d="M113.669 59.0373H108.992V63.7149H113.669V59.0373Z" fill="#585D47"/>
<path d="M118.211 59.0373H113.533V63.7149H118.211V59.0373Z" fill="#585D47"/>
<path d="M122.752 59.0373H118.074V63.7149H122.752V59.0373Z" fill="#585D47"/>
<path d="M127.293 59.0373H122.616V63.7149H127.293V59.0373Z" fill="#585D47"/>
<path d="M140.917 59.0373H136.24V63.7149H140.917V59.0373Z" fill="#585D47"/>
<path d="M150 59.0373H145.322V63.7149H150V59.0373Z" fill="#585D47"/>
<path d="M4.67757 63.5786H0V68.2561H4.67757V63.5786Z" fill="#585D47"/>
<path d="M9.21907 63.5786H4.5415V68.2561H9.21907V63.5786Z" fill="#585D47"/>
<path d="M13.7601 63.5786H9.08252V68.2561H13.7601V63.5786Z" fill="#585D47"/>
<path d="M22.8426 63.5786H18.165V68.2561H22.8426V63.5786Z" fill="#585D47"/>
<path d="M31.9256 63.5786H27.248V68.2561H31.9256V63.5786Z" fill="#585D47"/>
<path d="M50.0907 63.5786H45.4131V68.2561H50.0907V63.5786Z" fill="#585D47"/>
<path d="M54.6322 63.5786H49.9546V68.2561H54.6322V63.5786Z" fill="#585D47"/>
<path d="M59.1732 63.5786H54.4956V68.2561H59.1732V63.5786Z" fill="#585D47"/>
<path d="M63.7147 63.5786H59.0371V68.2561H63.7147V63.5786Z" fill="#585D47"/>
<path d="M68.2562 63.5786H63.5786V68.2561H68.2562V63.5786Z" fill="#585D47"/>
<path d="M81.8797 63.5786H77.2021V68.2561H81.8797V63.5786Z" fill="#585D47"/>
<path d="M86.4212 63.5786H81.7437V68.2561H86.4212V63.5786Z" fill="#585D47"/>
<path d="M95.5042 63.5786H90.8267V68.2561H95.5042V63.5786Z" fill="#585D47"/>
<path d="M122.752 63.5786H118.074V68.2561H122.752V63.5786Z" fill="#585D47"/>
<path d="M127.293 63.5786H122.616V68.2561H127.293V63.5786Z" fill="#585D47"/>
<path d="M131.835 63.5786H127.157V68.2561H131.835V63.5786Z" fill="#585D47"/>
<path d="M140.917 63.5786H136.24V68.2561H140.917V63.5786Z" fill="#585D47"/>
<path d="M145.458 63.5786H140.781V68.2561H145.458V63.5786Z" fill="#585D47"/>
<path d="M13.7601 68.1199H9.08252V72.7974H13.7601V68.1199Z" fill="#585D47"/>
<path d="M27.3841 68.1199H22.7065V72.7974H27.3841V68.1199Z" fill="#585D47"/>
<path d="M45.5496 68.1199H40.8721V72.7974H45.5496V68.1199Z" fill="#585D47"/>
<path d="M59.1732 68.1199H54.4956V72.7974H59.1732V68.1199Z" fill="#585D47"/>
<path d="M63.7147 68.1199H59.0371V72.7974H63.7147V68.1199Z" fill="#585D47"/>
<path d="M72.7977 68.1199H68.1201V72.7974H72.7977V68.1199Z" fill="#585D47"/>
<path d="M86.4212 68.1199H81.7437V72.7974H86.4212V68.1199Z" fill="#585D47"/>
<path d="M100.045 68.1199H95.3677V72.7974H100.045V68.1199Z" fill="#585D47"/>
<path d="M104.587 68.1199H99.9092V72.7974H104.587V68.1199Z" fill="#585D47"/>
<path d="M113.669 68.1199H108.992V72.7974H113.669V68.1199Z" fill="#585D47"/>
<path d="M136.376 68.1199H131.699V72.7974H136.376V68.1199Z" fill="#585D47"/>
<path d="M140.917 68.1199H136.24V72.7974H140.917V68.1199Z" fill="#585D47"/>
<path d="M145.458 68.1199H140.781V72.7974H145.458V68.1199Z" fill="#585D47"/>
<path d="M150 68.1199H145.322V72.7974H150V68.1199Z" fill="#585D47"/>
<path d="M13.7601 72.6613H9.08252V77.3388H13.7601V72.6613Z" fill="#585D47"/>
<path d="M18.3016 72.6613H13.624V77.3388H18.3016V72.6613Z" fill="#585D47"/>
<path d="M31.9256 72.6613H27.248V77.3388H31.9256V72.6613Z" fill="#585D47"/>
<path d="M41.0081 72.6613H36.3306V77.3388H41.0081V72.6613Z" fill="#585D47"/>
<path d="M45.5496 72.6613H40.8721V77.3388H45.5496V72.6613Z" fill="#585D47"/>
<path d="M54.6322 72.6613H49.9546V77.3388H54.6322V72.6613Z" fill="#585D47"/>
<path d="M59.1732 72.6613H54.4956V77.3388H59.1732V72.6613Z" fill="#585D47"/>
<path d="M81.8797 72.6613H77.2021V77.3388H81.8797V72.6613Z" fill="#585D47"/>
<path d="M86.4212 72.6613H81.7437V77.3388H86.4212V72.6613Z" fill="#585D47"/>
<path d="M95.5042 72.6613H90.8267V77.3388H95.5042V72.6613Z" fill="#585D47"/>
<path d="M104.587 72.6613H99.9092V77.3388H104.587V72.6613Z" fill="#585D47"/>
<path d="M113.669 72.6613H108.992V77.3388H113.669V72.6613Z" fill="#585D47"/>
<path d="M118.211 72.6613H113.533V77.3388H118.211V72.6613Z" fill="#585D47"/>
<path d="M131.835 72.6613H127.157V77.3388H131.835V72.6613Z" fill="#585D47"/>
<path d="M140.917 72.6613H136.24V77.3388H140.917V72.6613Z" fill="#585D47"/>
<path d="M4.67757 77.2025H0V81.8801H4.67757V77.2025Z" fill="#585D47"/>
<path d="M9.21907 77.2025H4.5415V81.8801H9.21907V77.2025Z" fill="#585D47"/>
<path d="M22.8426 77.2025H18.165V81.8801H22.8426V77.2025Z" fill="#585D47"/>
<path d="M36.4666 77.2025H31.7891V81.8801H36.4666V77.2025Z" fill="#585D47"/>
<path d="M41.0081 77.2025H36.3306V81.8801H41.0081V77.2025Z" fill="#585D47"/>
<path d="M45.5496 77.2025H40.8721V81.8801H45.5496V77.2025Z" fill="#585D47"/>
<path d="M50.0907 77.2025H45.4131V81.8801H50.0907V77.2025Z" fill="#585D47"/>
<path d="M63.7147 77.2025H59.0371V81.8801H63.7147V77.2025Z" fill="#585D47"/>
<path d="M68.2562 77.2025H63.5786V81.8801H68.2562V77.2025Z" fill="#585D47"/>
<path d="M72.7977 77.2025H68.1201V81.8801H72.7977V77.2025Z" fill="#585D47"/>
<path d="M77.3387 77.2025H72.6611V81.8801H77.3387V77.2025Z" fill="#585D47"/>
<path d="M90.9627 77.2025H86.2852V81.8801H90.9627V77.2025Z" fill="#585D47"/>
<path d="M100.045 77.2025H95.3677V81.8801H100.045V77.2025Z" fill="#585D47"/>
<path d="M109.128 77.2025H104.451V81.8801H109.128V77.2025Z" fill="#585D47"/>
<path d="M122.752 77.2025H118.074V81.8801H122.752V77.2025Z" fill="#585D47"/>
<path d="M127.293 77.2025H122.616V81.8801H127.293V77.2025Z" fill="#585D47"/>
<path d="M136.376 77.2025H131.699V81.8801H136.376V77.2025Z" fill="#585D47"/>
<path d="M140.917 77.2025H136.24V81.8801H140.917V77.2025Z" fill="#585D47"/>
<path d="M145.458 77.2025H140.781V81.8801H145.458V77.2025Z" fill="#585D47"/>
<path d="M9.21907 81.7438H4.5415V86.4214H9.21907V81.7438Z" fill="#585D47"/>
<path d="M18.3016 81.7438H13.624V86.4214H18.3016V81.7438Z" fill="#585D47"/>
<path d="M27.3841 81.7438H22.7065V86.4214H27.3841V81.7438Z" fill="#585D47"/>
<path d="M31.9256 81.7438H27.248V86.4214H31.9256V81.7438Z" fill="#585D47"/>
<path d="M36.4666 81.7438H31.7891V86.4214H36.4666V81.7438Z" fill="#585D47"/>
<path d="M41.0081 81.7438H36.3306V86.4214H41.0081V81.7438Z" fill="#585D47"/>
<path d="M45.5496 81.7438H40.8721V86.4214H45.5496V81.7438Z" fill="#585D47"/>
<path d="M54.6322 81.7438H49.9546V86.4214H54.6322V81.7438Z" fill="#585D47"/>
<path d="M63.7147 81.7438H59.0371V86.4214H63.7147V81.7438Z" fill="#585D47"/>
<path d="M77.3387 81.7438H72.6611V86.4214H77.3387V81.7438Z" fill="#585D47"/>
<path d="M81.8797 81.7438H77.2021V86.4214H81.8797V81.7438Z" fill="#585D47"/>
<path d="M95.5042 81.7438H90.8267V86.4214H95.5042V81.7438Z" fill="#585D47"/>
<path d="M100.045 81.7438H95.3677V86.4214H100.045V81.7438Z" fill="#585D47"/>
<path d="M113.669 81.7438H108.992V86.4214H113.669V81.7438Z" fill="#585D47"/>
<path d="M118.211 81.7438H113.533V86.4214H118.211V81.7438Z" fill="#585D47"/>
<path d="M131.835 81.7438H127.157V86.4214H131.835V81.7438Z" fill="#585D47"/>
<path d="M4.67757 86.2853H0V90.9628H4.67757V86.2853Z" fill="#585D47"/>
<path d="M9.21907 86.2853H4.5415V90.9628H9.21907V86.2853Z" fill="#585D47"/>
<path d="M41.0081 86.2853H36.3306V90.9628H41.0081V86.2853Z" fill="#585D47"/>
<path d="M45.5496 86.2853H40.8721V90.9628H45.5496V86.2853Z" fill="#585D47"/>
<path d="M50.0907 86.2853H45.4131V90.9628H50.0907V86.2853Z" fill="#585D47"/>
<path d="M59.1732 86.2853H54.4956V90.9628H59.1732V86.2853Z" fill="#585D47"/>
<path d="M63.7147 86.2853H59.0371V90.9628H63.7147V86.2853Z" fill="#585D47"/>
<path d="M81.8797 86.2853H77.2021V90.9628H81.8797V86.2853Z" fill="#585D47"/>
<path d="M100.045 86.2853H95.3677V90.9628H100.045V86.2853Z" fill="#585D47"/>
<path d="M104.587 86.2853H99.9092V90.9628H104.587V86.2853Z" fill="#585D47"/>
<path d="M118.211 86.2853H113.533V90.9628H118.211V86.2853Z" fill="#585D47"/>
<path d="M122.752 86.2853H118.074V90.9628H122.752V86.2853Z" fill="#585D47"/>
<path d="M127.293 86.2853H122.616V90.9628H127.293V86.2853Z" fill="#585D47"/>
<path d="M136.376 86.2853H131.699V90.9628H136.376V86.2853Z" fill="#585D47"/>
<path d="M140.917 86.2853H136.24V90.9628H140.917V86.2853Z" fill="#585D47"/>
<path d="M13.7601 90.8267H9.08252V95.5042H13.7601V90.8267Z" fill="#585D47"/>
<path d="M27.3841 90.8267H22.7065V95.5042H27.3841V90.8267Z" fill="#585D47"/>
<path d="M31.9256 90.8267H27.248V95.5042H31.9256V90.8267Z" fill="#585D47"/>
<path d="M45.5496 90.8267H40.8721V95.5042H45.5496V90.8267Z" fill="#585D47"/>
<path d="M50.0907 90.8267H45.4131V95.5042H50.0907V90.8267Z" fill="#585D47"/>
<path d="M59.1732 90.8267H54.4956V95.5042H59.1732V90.8267Z" fill="#585D47"/>
<path d="M63.7147 90.8267H59.0371V95.5042H63.7147V90.8267Z" fill="#585D47"/>
<path d="M68.2562 90.8267H63.5786V95.5042H68.2562V90.8267Z" fill="#585D47"/>
<path d="M72.7977 90.8267H68.1201V95.5042H72.7977V90.8267Z" fill="#585D47"/>
<path d="M90.9627 90.8267H86.2852V95.5042H90.9627V90.8267Z" fill="#585D47"/>
<path d="M100.045 90.8267H95.3677V95.5042H100.045V90.8267Z" fill="#585D47"/>
<path d="M113.669 90.8267H108.992V95.5042H113.669V90.8267Z" fill="#585D47"/>
<path d="M127.293 90.8267H122.616V95.5042H127.293V90.8267Z" fill="#585D47"/>
<path d="M131.835 90.8267H127.157V95.5042H131.835V90.8267Z" fill="#585D47"/>
<path d="M145.458 90.8267H140.781V95.5042H145.458V90.8267Z" fill="#585D47"/>
<path d="M4.67757 95.3679H0V100.045H4.67757V95.3679Z" fill="#585D47"/>
<path d="M9.21907 95.3679H4.5415V100.045H9.21907V95.3679Z" fill="#585D47"/>
<path d="M18.3016 95.3679H13.624V100.045H18.3016V95.3679Z" fill="#585D47"/>
<path d="M22.8426 95.3679H18.165V100.045H22.8426V95.3679Z" fill="#585D47"/>
<path d="M36.4666 95.3679H31.7891V100.045H36.4666V95.3679Z" fill="#585D47"/>
<path d="M45.5496 95.3679H40.8721V100.045H45.5496V95.3679Z" fill="#585D47"/>
<path d="M50.0907 95.3679H45.4131V100.045H50.0907V95.3679Z" fill="#585D47"/>
<path d="M59.1732 95.3679H54.4956V100.045H59.1732V95.3679Z" fill="#585D47"/>
<path d="M63.7147 95.3679H59.0371V100.045H63.7147V95.3679Z" fill="#585D47"/>
<path d="M77.3387 95.3679H72.6611V100.045H77.3387V95.3679Z" fill="#585D47"/>
<path d="M81.8797 95.3679H77.2021V100.045H81.8797V95.3679Z" fill="#585D47"/>
<path d="M86.4212 95.3679H81.7437V100.045H86.4212V95.3679Z" fill="#585D47"/>
<path d="M95.5042 95.3679H90.8267V100.045H95.5042V95.3679Z" fill="#585D47"/>
<path d="M100.045 95.3679H95.3677V100.045H100.045V95.3679Z" fill="#585D47"/>
<path d="M104.587 95.3679H99.9092V100.045H104.587V95.3679Z" fill="#585D47"/>
<path d="M118.211 95.3679H113.533V100.045H118.211V95.3679Z" fill="#585D47"/>
<path d="M122.752 95.3679H118.074V100.045H122.752V95.3679Z" fill="#585D47"/>
<path d="M136.376 95.3679H131.699V100.045H136.376V95.3679Z" fill="#585D47"/>
<path d="M140.917 95.3679H136.24V100.045H140.917V95.3679Z" fill="#585D47"/>
<path d="M150 95.3679H145.322V100.045H150V95.3679Z" fill="#585D47"/>
<path d="M4.67757 99.9092H0V104.587H4.67757V99.9092Z" fill="#585D47"/>
<path d="M13.7601 99.9092H9.08252V104.587H13.7601V99.9092Z" fill="#585D47"/>
<path d="M18.3016 99.9092H13.624V104.587H18.3016V99.9092Z" fill="#585D47"/>
<path d="M31.9256 99.9092H27.248V104.587H31.9256V99.9092Z" fill="#585D47"/>
<path d="M41.0081 99.9092H36.3306V104.587H41.0081V99.9092Z" fill="#585D47"/>
<path d="M54.6322 99.9092H49.9546V104.587H54.6322V99.9092Z" fill="#585D47"/>
<path d="M68.2562 99.9092H63.5786V104.587H68.2562V99.9092Z" fill="#585D47"/>
<path d="M77.3387 99.9092H72.6611V104.587H77.3387V99.9092Z" fill="#585D47"/>
<path d="M90.9627 99.9092H86.2852V104.587H90.9627V99.9092Z" fill="#585D47"/>
<path d="M104.587 99.9092H99.9092V104.587H104.587V99.9092Z" fill="#585D47"/>
<path d="M109.128 99.9092H104.451V104.587H109.128V99.9092Z" fill="#585D47"/>
<path d="M113.669 99.9092H108.992V104.587H113.669V99.9092Z" fill="#585D47"/>
<path d="M118.211 99.9092H113.533V104.587H118.211V99.9092Z" fill="#585D47"/>
<path d="M127.293 99.9092H122.616V104.587H127.293V99.9092Z" fill="#585D47"/>
<path d="M145.458 99.9092H140.781V104.587H145.458V99.9092Z" fill="#585D47"/>
<path d="M4.67757 104.451H0V109.128H4.67757V104.451Z" fill="#585D47"/>
<path d="M18.3016 104.451H13.624V109.128H18.3016V104.451Z" fill="#585D47"/>
<path d="M27.3841 104.451H22.7065V109.128H27.3841V104.451Z" fill="#585D47"/>
<path d="M41.0081 104.451H36.3306V109.128H41.0081V104.451Z" fill="#585D47"/>
<path d="M54.6322 104.451H49.9546V109.128H54.6322V104.451Z" fill="#585D47"/>
<path d="M59.1732 104.451H54.4956V109.128H59.1732V104.451Z" fill="#585D47"/>
<path d="M63.7147 104.451H59.0371V109.128H63.7147V104.451Z" fill="#585D47"/>
<path d="M68.2562 104.451H63.5786V109.128H68.2562V104.451Z" fill="#585D47"/>
<path d="M72.7977 104.451H68.1201V109.128H72.7977V104.451Z" fill="#585D47"/>
<path d="M81.8797 104.451H77.2021V109.128H81.8797V104.451Z" fill="#585D47"/>
<path d="M90.9627 104.451H86.2852V109.128H90.9627V104.451Z" fill="#585D47"/>
<path d="M95.5042 104.451H90.8267V109.128H95.5042V104.451Z" fill="#585D47"/>
<path d="M100.045 104.451H95.3677V109.128H100.045V104.451Z" fill="#585D47"/>
<path d="M109.128 104.451H104.451V109.128H109.128V104.451Z" fill="#585D47"/>
<path d="M118.211 104.451H113.533V109.128H118.211V104.451Z" fill="#585D47"/>
<path d="M140.917 104.451H136.24V109.128H140.917V104.451Z" fill="#585D47"/>
<path d="M4.67757 108.992H0V113.669H4.67757V108.992Z" fill="#585D47"/>
<path d="M18.3016 108.992H13.624V113.669H18.3016V108.992Z" fill="#585D47"/>
<path d="M27.3841 108.992H22.7065V113.669H27.3841V108.992Z" fill="#585D47"/>
<path d="M31.9256 108.992H27.248V113.669H31.9256V108.992Z" fill="#585D47"/>
<path d="M45.5496 108.992H40.8721V113.669H45.5496V108.992Z" fill="#585D47"/>
<path d="M50.0907 108.992H45.4131V113.669H50.0907V108.992Z" fill="#585D47"/>
<path d="M54.6322 108.992H49.9546V113.669H54.6322V108.992Z" fill="#585D47"/>
<path d="M81.8797 108.992H77.2021V113.669H81.8797V108.992Z" fill="#585D47"/>
<path d="M90.9627 108.992H86.2852V113.669H90.9627V108.992Z" fill="#585D47"/>
<path d="M95.5042 108.992H90.8267V113.669H95.5042V108.992Z" fill="#585D47"/>
<path d="M104.587 108.992H99.9092V113.669H104.587V108.992Z" fill="#585D47"/>
<path d="M109.128 108.992H104.451V113.669H109.128V108.992Z" fill="#585D47"/>
<path d="M113.669 108.992H108.992V113.669H113.669V108.992Z" fill="#585D47"/>
<path d="M118.211 108.992H113.533V113.669H118.211V108.992Z" fill="#585D47"/>
<path d="M122.752 108.992H118.074V113.669H122.752V108.992Z" fill="#585D47"/>
<path d="M127.293 108.992H122.616V113.669H127.293V108.992Z" fill="#585D47"/>
<path d="M131.835 108.992H127.157V113.669H131.835V108.992Z" fill="#585D47"/>
<path d="M150 108.992H145.322V113.669H150V108.992Z" fill="#585D47"/>
<path d="M41.0081 113.533H36.3306V118.211H41.0081V113.533Z" fill="#585D47"/>
<path d="M59.1732 113.533H54.4956V118.211H59.1732V113.533Z" fill="#585D47"/>
<path d="M63.7147 113.533H59.0371V118.211H63.7147V113.533Z" fill="#585D47"/>
<path d="M68.2562 113.533H63.5786V118.211H68.2562V113.533Z" fill="#585D47"/>
<path d="M86.4212 113.533H81.7437V118.211H86.4212V113.533Z" fill="#585D47"/>
<path d="M90.9627 113.533H86.2852V118.211H90.9627V113.533Z" fill="#585D47"/>
<path d="M109.128 113.533H104.451V118.211H109.128V113.533Z" fill="#585D47"/>
<path d="M113.669 113.533H108.992V118.211H113.669V113.533Z" fill="#585D47"/>
<path d="M131.835 113.533H127.157V118.211H131.835V113.533Z" fill="#585D47"/>
<path d="M140.917 113.533H136.24V118.211H140.917V113.533Z" fill="#585D47"/>
<path d="M150 113.533H145.322V118.211H150V113.533Z" fill="#585D47"/>
<path d="M41.0081 118.075H36.3306V122.752H41.0081V118.075Z" fill="#585D47"/>
<path d="M59.1732 118.075H54.4956V122.752H59.1732V118.075Z" fill="#585D47"/>
<path d="M77.3387 118.075H72.6611V122.752H77.3387V118.075Z" fill="#585D47"/>
<path d="M81.8797 118.075H77.2021V122.752H81.8797V118.075Z" fill="#585D47"/>
<path d="M104.587 118.075H99.9092V122.752H104.587V118.075Z" fill="#585D47"/>
<path d="M109.128 118.075H104.451V122.752H109.128V118.075Z" fill="#585D47"/>
<path d="M113.669 118.075H108.992V122.752H113.669V118.075Z" fill="#585D47"/>
<path d="M122.752 118.075H118.074V122.752H122.752V118.075Z" fill="#585D47"/>
<path d="M131.835 118.075H127.157V122.752H131.835V118.075Z" fill="#585D47"/>
<path d="M136.376 118.075H131.699V122.752H136.376V118.075Z" fill="#585D47"/>
<path d="M140.917 118.075H136.24V122.752H140.917V118.075Z" fill="#585D47"/>
<path d="M145.458 118.075H140.781V122.752H145.458V118.075Z" fill="#585D47"/>
<path d="M41.0081 122.616H36.3306V127.293H41.0081V122.616Z" fill="#585D47"/>
<path d="M45.5496 122.616H40.8721V127.293H45.5496V122.616Z" fill="#585D47"/>
<path d="M54.6322 122.616H49.9546V127.293H54.6322V122.616Z" fill="#585D47"/>
<path d="M63.7147 122.616H59.0371V127.293H63.7147V122.616Z" fill="#585D47"/>
<path d="M72.7977 122.616H68.1201V127.293H72.7977V122.616Z" fill="#585D47"/>
<path d="M95.5042 122.616H90.8267V127.293H95.5042V122.616Z" fill="#585D47"/>
<path d="M113.669 122.616H108.992V127.293H113.669V122.616Z" fill="#585D47"/>
<path d="M131.835 122.616H127.157V127.293H131.835V122.616Z" fill="#585D47"/>
<path d="M136.376 122.616H131.699V127.293H136.376V122.616Z" fill="#585D47"/>
<path d="M140.917 122.616H136.24V127.293H140.917V122.616Z" fill="#585D47"/>
<path d="M150 122.616H145.322V127.293H150V122.616Z" fill="#585D47"/>
<path d="M41.0081 127.157H36.3306V131.835H41.0081V127.157Z" fill="#585D47"/>
<path d="M59.1732 127.157H54.4956V131.835H59.1732V127.157Z" fill="#585D47"/>
<path d="M72.7977 127.157H68.1201V131.835H72.7977V127.157Z" fill="#585D47"/>
<path d="M77.3387 127.157H72.6611V131.835H77.3387V127.157Z" fill="#585D47"/>
<path d="M81.8797 127.157H77.2021V131.835H81.8797V127.157Z" fill="#585D47"/>
<path d="M95.5042 127.157H90.8267V131.835H95.5042V127.157Z" fill="#585D47"/>
<path d="M100.045 127.157H95.3677V131.835H100.045V127.157Z" fill="#585D47"/>
<path d="M104.587 127.157H99.9092V131.835H104.587V127.157Z" fill="#585D47"/>
<path d="M113.669 127.157H108.992V131.835H113.669V127.157Z" fill="#585D47"/>
<path d="M118.211 127.157H113.533V131.835H118.211V127.157Z" fill="#585D47"/>
<path d="M122.752 127.157H118.074V131.835H122.752V127.157Z" fill="#585D47"/>
<path d="M127.293 127.157H122.616V131.835H127.293V127.157Z" fill="#585D47"/>
<path d="M131.835 127.157H127.157V131.835H131.835V127.157Z" fill="#585D47"/>
<path d="M145.458 127.157H140.781V131.835H145.458V127.157Z" fill="#585D47"/>
<path d="M41.0081 131.699H36.3306V136.376H41.0081V131.699Z" fill="#585D47"/>
<path d="M45.5496 131.699H40.8721V136.376H45.5496V131.699Z" fill="#585D47"/>
<path d="M50.0907 131.699H45.4131V136.376H50.0907V131.699Z" fill="#585D47"/>
<path d="M63.7147 131.699H59.0371V136.376H63.7147V131.699Z" fill="#585D47"/>
<path d="M68.2562 131.699H63.5786V136.376H68.2562V131.699Z" fill="#585D47"/>
<path d="M81.8797 131.699H77.2021V136.376H81.8797V131.699Z" fill="#585D47"/>
<path d="M100.045 131.699H95.3677V136.376H100.045V131.699Z" fill="#585D47"/>
<path d="M109.128 131.699H104.451V136.376H109.128V131.699Z" fill="#585D47"/>
<path d="M113.669 131.699H108.992V136.376H113.669V131.699Z" fill="#585D47"/>
<path d="M118.211 131.699H113.533V136.376H118.211V131.699Z" fill="#585D47"/>
<path d="M131.835 131.699H127.157V136.376H131.835V131.699Z" fill="#585D47"/>
<path d="M136.376 131.699H131.699V136.376H136.376V131.699Z" fill="#585D47"/>
<path d="M140.917 131.699H136.24V136.376H140.917V131.699Z" fill="#585D47"/>
<path d="M145.458 131.699H140.781V136.376H145.458V131.699Z" fill="#585D47"/>
<path d="M41.0081 136.24H36.3306V140.917H41.0081V136.24Z" fill="#585D47"/>
<path d="M45.5496 136.24H40.8721V140.917H45.5496V136.24Z" fill="#585D47"/>
<path d="M54.6322 136.24H49.9546V140.917H54.6322V136.24Z" fill="#585D47"/>
<path d="M63.7147 136.24H59.0371V140.917H63.7147V136.24Z" fill="#585D47"/>
<path d="M68.2562 136.24H63.5786V140.917H68.2562V136.24Z" fill="#585D47"/>
<path d="M95.5042 136.24H90.8267V140.917H95.5042V136.24Z" fill="#585D47"/>
<path d="M113.669 136.24H108.992V140.917H113.669V136.24Z" fill="#585D47"/>
<path d="M122.752 136.24H118.074V140.917H122.752V136.24Z" fill="#585D47"/>
<path d="M127.293 136.24H122.616V140.917H127.293V136.24Z" fill="#585D47"/>
<path d="M140.917 136.24H136.24V140.917H140.917V136.24Z" fill="#585D47"/>
<path d="M41.0081 140.781H36.3306V145.459H41.0081V140.781Z" fill="#585D47"/>
<path d="M45.5496 140.781H40.8721V145.459H45.5496V140.781Z" fill="#585D47"/>
<path d="M59.1732 140.781H54.4956V145.459H59.1732V140.781Z" fill="#585D47"/>
<path d="M63.7147 140.781H59.0371V145.459H63.7147V140.781Z" fill="#585D47"/>
<path d="M81.8797 140.781H77.2021V145.459H81.8797V140.781Z" fill="#585D47"/>
<path d="M100.045 140.781H95.3677V145.459H100.045V140.781Z" fill="#585D47"/>
<path d="M104.587 140.781H99.9092V145.459H104.587V140.781Z" fill="#585D47"/>
<path d="M113.669 140.781H108.992V145.459H113.669V140.781Z" fill="#585D47"/>
<path d="M127.293 140.781H122.616V145.459H127.293V140.781Z" fill="#585D47"/>
<path d="M131.835 140.781H127.157V145.459H131.835V140.781Z" fill="#585D47"/>
<path d="M140.917 140.781H136.24V145.459H140.917V140.781Z" fill="#585D47"/>
<path d="M45.5496 145.323H40.8721V150H45.5496V145.323Z" fill="#585D47"/>
<path d="M50.0907 145.323H45.4131V150H50.0907V145.323Z" fill="#585D47"/>
<path d="M54.6322 145.323H49.9546V150H54.6322V145.323Z" fill="#585D47"/>
<path d="M59.1732 145.323H54.4956V150H59.1732V145.323Z" fill="#585D47"/>
<path d="M68.2562 145.323H63.5786V150H68.2562V145.323Z" fill="#585D47"/>
<path d="M72.7977 145.323H68.1201V150H72.7977V145.323Z" fill="#585D47"/>
<path d="M77.3387 145.323H72.6611V150H77.3387V145.323Z" fill="#585D47"/>
<path d="M86.4212 145.323H81.7437V150H86.4212V145.323Z" fill="#585D47"/>
<path d="M104.587 145.323H99.9092V150H104.587V145.323Z" fill="#585D47"/>
<path d="M113.669 145.323H108.992V150H113.669V145.323Z" fill="#585D47"/>
<path d="M127.293 145.323H122.616V150H127.293V145.323Z" fill="#585D47"/>
<path d="M140.917 145.323H136.24V150H140.917V145.323Z" fill="#585D47"/>
<path d="M145.458 145.323H140.781V150H145.458V145.323Z" fill="#585D47"/>
<path d="M0 0V31.7893H31.7893V0H0ZM27.248 27.248H4.54133V4.54133H27.248V27.248Z" fill="#585D47"/>
<path d="M118.074 0V31.7893H149.864V0H118.074ZM145.322 27.248H122.616V4.54133H145.322V27.248Z" fill="#585D47"/>
<path d="M0 118.075V149.864H31.7893V118.075H0ZM27.248 145.323H4.54133V122.616H27.248V145.323Z" fill="#585D47"/>
<path d="M22.7065 9.08258H9.08252V22.7066H22.7065V9.08258Z" fill="#585D47"/>
<path d="M140.781 9.08258H127.157V22.7066H140.781V9.08258Z" fill="#585D47"/>
<path d="M22.7065 127.157H9.08252V140.781H22.7065V127.157Z" fill="#585D47"/>
</svg>
