<svg width="32" height="32" viewBox="0 0 32 32" fill="none" xmlns="http://www.w3.org/2000/svg">
<path d="M18.6667 13.3333V22.6667M13.3334 13.3333V22.6667M8.00004 8V23.7333C8.00004 25.2268 8.00004 25.973 8.29069 26.5435C8.54635 27.0452 8.954 27.454 9.45577 27.7096C10.0256 28 10.772 28 12.2626 28H19.7375C21.228 28 21.9734 28 22.5432 27.7096C23.045 27.454 23.454 27.0452 23.7097 26.5435C24 25.9736 24 25.228 24 23.7375V8M8.00004 8H10.6667M8.00004 8H5.33337M10.6667 8H21.3334M10.6667 8C10.6667 6.75749 10.6667 6.13654 10.8697 5.64648C11.1403 4.99308 11.6591 4.47364 12.3125 4.20299C12.8026 4 13.4242 4 14.6667 4H17.3334C18.5759 4 19.1971 4 19.6872 4.20299C20.3406 4.47364 20.8596 4.99308 21.1302 5.64648C21.3332 6.13654 21.3334 6.75749 21.3334 8M21.3334 8H24M24 8H26.6667" stroke="#2B2B2B" stroke-width="2" stroke-linecap="round" stroke-linejoin="round"/>
</svg>
