<svg width="20" height="21" viewBox="0 0 20 21" fill="none" xmlns="http://www.w3.org/2000/svg">
<g filter="url(#filter0_d_36_35)">
<path d="M4 3.75C4 3.33579 4.33579 3 4.75 3H15.25C15.6642 3 16 3.33579 16 3.75C16 4.16421 15.6642 4.5 15.25 4.5H4.75C4.33579 4.5 4 4.16421 4 3.75ZM4 7.75C4 7.33579 4.33579 7 4.75 7H15.25C15.6642 7 16 7.33579 16 7.75C16 8.16421 15.6642 8.5 15.25 8.5H4.75C4.33579 8.5 4 8.16421 4 7.75ZM4 11.75C4 11.3358 4.33579 11 4.75 11H15.25C15.6642 11 16 11.3358 16 11.75C16 12.1642 15.6642 12.5 15.25 12.5H4.75C4.33579 12.5 4 12.1642 4 11.75Z" fill="#242424"/>
</g>
<defs>
<filter id="filter0_d_36_35" x="-2" y="0" width="24" height="24" filterUnits="userSpaceOnUse" color-interpolation-filters="sRGB">
<feFlood flood-opacity="0" result="BackgroundImageFix"/>
<feColorMatrix in="SourceAlpha" type="matrix" values="0 0 0 0 0 0 0 0 0 0 0 0 0 0 0 0 0 0 127 0" result="hardAlpha"/>
<feOffset dy="4"/>
<feGaussianBlur stdDeviation="2"/>
<feComposite in2="hardAlpha" operator="out"/>
<feColorMatrix type="matrix" values="0 0 0 0 0 0 0 0 0 0 0 0 0 0 0 0 0 0 0.25 0"/>
<feBlend mode="normal" in2="BackgroundImageFix" result="effect1_dropShadow_36_35"/>
<feBlend mode="normal" in="SourceGraphic" in2="effect1_dropShadow_36_35" result="shape"/>
</filter>
</defs>
</svg>
