<svg width="32" height="32" viewBox="0 0 32 32" fill="none" xmlns="http://www.w3.org/2000/svg">
<path d="M16 10.6668L5.33337 21.3334V26.6668L10.6667 26.6667L21.3334 16.0001M16 10.6668L19.8249 6.84191L19.8272 6.83964C20.3537 6.31313 20.6174 6.04941 20.9214 5.95063C21.1892 5.86362 21.4777 5.86362 21.7455 5.95063C22.0493 6.04934 22.3127 6.31276 22.8385 6.83853L25.1582 9.15826C25.6862 9.68627 25.9503 9.95041 26.0493 10.2548C26.1363 10.5226 26.1362 10.8111 26.0492 11.0789C25.9504 11.3831 25.6866 11.6468 25.1594 12.1741L25.1582 12.1752L21.3334 16.0001M16 10.6668L21.3334 16.0001" stroke="#2B2B2B" stroke-width="2" stroke-linecap="round" stroke-linejoin="round"/>
</svg>
