<svg width="18" height="18" viewBox="0 0 18 18" fill="none" xmlns="http://www.w3.org/2000/svg">
<path d="M2.25004 13.5001C2.25 13.4516 2.25 13.4017 2.25 13.3501V4.65015C2.25 3.81007 2.25 3.38972 2.41349 3.06885C2.5573 2.7866 2.7866 2.5573 3.06885 2.41349C3.38972 2.25 3.81007 2.25 4.65015 2.25H13.3501C14.1902 2.25 14.61 2.25 14.9309 2.41349C15.2132 2.5573 15.4429 2.7866 15.5867 3.06885C15.75 3.3894 15.75 3.80925 15.75 4.64768V13.3523C15.75 13.7161 15.75 14.0009 15.7367 14.2331M2.25004 13.5001C2.25062 14.2413 2.26003 14.6294 2.41349 14.9305C2.5573 15.2128 2.7866 15.4429 3.06885 15.5867C3.3894 15.75 3.80925 15.75 4.64768 15.75H13.3527C14.1911 15.75 14.6104 15.75 14.9309 15.5867C15.2132 15.4429 15.4429 15.2128 15.5867 14.9305C15.6791 14.7491 15.7193 14.536 15.7367 14.2331M2.25004 13.5001L5.82598 9.32812L5.82704 9.32697C6.1442 8.95695 6.30305 8.77163 6.49145 8.70483C6.65696 8.64616 6.83765 8.64753 7.00232 8.7085C7.18998 8.77797 7.34629 8.96541 7.65894 9.34058L9.66231 11.7446C9.95171 12.0919 10.0973 12.2666 10.274 12.3367C10.4298 12.3985 10.6017 12.4055 10.7626 12.358C10.9456 12.304 11.1068 12.1428 11.4291 11.8206L11.8019 11.4478C12.13 11.1196 12.2941 10.9557 12.4798 10.9021C12.6429 10.855 12.8172 10.8651 12.9741 10.9299C13.1528 11.0037 13.2976 11.1843 13.5875 11.5466L15.7367 14.2331M15.7367 14.2331L15.75 14.2497M11.25 6.75C10.8358 6.75 10.5 6.41421 10.5 6C10.5 5.58579 10.8358 5.25 11.25 5.25C11.6642 5.25 12 5.58579 12 6C12 6.41421 11.6642 6.75 11.25 6.75Z" stroke="#242424" stroke-width="2" stroke-linecap="round" stroke-linejoin="round"/>
</svg>
