<svg width="24" height="24" viewBox="0 0 24 24" fill="none" xmlns="http://www.w3.org/2000/svg">
<path d="M21.621 6.879C21.0585 6.3165 20.295 6 19.5 6V3.75C19.5 3.5505 19.4205 3.36 19.281 3.219C19.1415 3.078 18.9495 3 18.75 3C18.5505 3 18.36 3.0795 18.219 3.219C18.078 3.3585 18 3.5505 18 3.75V6H15V3.75C15 3.5505 14.9205 3.36 14.781 3.219C14.64 3.078 14.4495 3 14.25 3C14.0505 3 13.86 3.0795 13.719 3.219C13.578 3.36 13.5 3.5505 13.5 3.75V6H10.5V3.75C10.5 3.5505 10.4205 3.36 10.281 3.219C10.14 3.078 9.9495 3 9.75 3C9.5505 3 9.36 3.0795 9.219 3.219C9.078 3.36 9 3.5505 9 3.75V6H6V3.75C6 3.5505 5.9205 3.36 5.781 3.219C5.64 3.078 5.4495 3 5.25 3C5.0505 3 4.86 3.0795 4.719 3.219C4.578 3.36 4.5 3.5505 4.5 3.75V6C3.705 6 2.9415 6.3165 2.379 6.879C1.8165 7.4415 1.5 8.205 1.5 9V15C1.5 15.795 1.8165 16.5585 2.379 17.121C2.9415 17.6835 3.705 18 4.5 18V20.25C4.5 20.4495 4.5795 20.64 4.719 20.781C4.86 20.922 5.0505 21 5.25 21C5.4495 21 5.64 20.9205 5.781 20.781C5.922 20.64 6 20.4495 6 20.25V18H9V20.25C9 20.4495 9.0795 20.64 9.219 20.781C9.36 20.922 9.5505 21 9.75 21C9.9495 21 10.14 20.9205 10.281 20.781C10.422 20.64 10.5 20.4495 10.5 20.25V18H13.5V20.25C13.5 20.4495 13.5795 20.64 13.719 20.781C13.86 20.922 14.0505 21 14.25 21C14.4495 21 14.64 20.9205 14.781 20.781C14.922 20.64 15 20.4495 15 20.25V18H18V20.25C18 20.4495 18.0795 20.64 18.219 20.781C18.36 20.922 18.5505 21 18.75 21C18.9495 21 19.14 20.9205 19.281 20.781C19.422 20.64 19.5 20.4495 19.5 20.25V18C20.295 18 21.0585 17.6835 21.621 17.121C22.1835 16.5585 22.5 15.795 22.5 15V9C22.5 8.205 22.1835 7.4415 21.621 6.879ZM19.5 14.25C19.5 14.4495 19.4205 14.64 19.281 14.781C19.14 14.922 18.9495 15 18.75 15H5.25C5.0505 15 4.86 14.9205 4.719 14.781C4.578 14.6415 4.5 14.4495 4.5 14.25V9.75C4.5 9.5505 4.5795 9.36 4.719 9.219C4.86 9.078 5.0505 9 5.25 9H18.75C18.9495 9 19.14 9.0795 19.281 9.219C19.422 9.3585 19.5 9.5505 19.5 9.75V14.25ZM6 13.5H18V10.5H6V13.5Z" fill="#F5F3EC"/>
</svg>
