<svg width="24" height="25" viewBox="0 0 24 25" fill="none" xmlns="http://www.w3.org/2000/svg">
<path d="M12.0124 2.75C12.7464 2.75846 13.4775 2.84326 14.1939 3.00304C14.5067 3.07279 14.7406 3.33351 14.7761 3.65196L14.9463 5.17881C15.0233 5.87986 15.6152 6.41084 16.3209 6.41158C16.5105 6.41188 16.6982 6.37238 16.8734 6.29483L18.2741 5.67956C18.5654 5.55159 18.9057 5.62136 19.1232 5.85362C20.1354 6.93464 20.8892 8.23115 21.3279 9.64558C21.4225 9.95058 21.3137 10.282 21.0566 10.4715L19.8151 11.3866C19.461 11.6468 19.2518 12.06 19.2518 12.4995C19.2518 12.9389 19.461 13.3521 19.8159 13.6129L21.0585 14.5283C21.3156 14.7177 21.4246 15.0492 21.3299 15.3543C20.8914 16.7685 20.138 18.0649 19.1264 19.1461C18.9091 19.3783 18.569 19.4483 18.2777 19.3206L16.8714 18.7045C16.4691 18.5284 16.007 18.5542 15.6268 18.774C15.2466 18.9937 14.9935 19.3812 14.9452 19.8177L14.7761 21.3444C14.7413 21.6592 14.5124 21.9182 14.2043 21.9915C12.7558 22.3361 11.2467 22.3361 9.79828 21.9915C9.49015 21.9182 9.26129 21.6592 9.22643 21.3444L9.0576 19.82C9.00802 19.3843 8.75459 18.998 8.37467 18.779C7.99475 18.56 7.53345 18.5343 7.13244 18.7094L5.72582 19.3256C5.43446 19.4533 5.09428 19.3833 4.87703 19.1509C3.86487 18.0685 3.11144 16.7705 2.67344 15.3548C2.57911 15.0499 2.68811 14.7186 2.94509 14.5293L4.18842 13.6133C4.54256 13.3531 4.75172 12.9399 4.75172 12.5005C4.75172 12.061 4.54256 11.6478 4.18796 11.3873L2.94541 10.4728C2.68804 10.2834 2.57894 9.95178 2.67361 9.64658C3.11236 8.23215 3.86619 6.93564 4.87837 5.85462C5.09584 5.62236 5.43618 5.55259 5.72749 5.68056L7.12786 6.29572C7.53081 6.47256 7.99404 6.44585 8.37601 6.22269C8.75633 6.00209 9.00953 5.61422 9.05841 5.17764L9.22849 3.65196C9.26401 3.33335 9.49811 3.07254 9.81105 3.00294C10.5283 2.84342 11.2602 2.75865 12.0124 2.75ZM11.9999 9.49995C10.3431 9.49995 8.99994 10.8431 8.99994 12.5C8.99994 14.1568 10.3431 15.5 11.9999 15.5C13.6568 15.5 14.9999 14.1568 14.9999 12.5C14.9999 10.8431 13.6568 9.49995 11.9999 9.49995Z" fill="#F5F3EC"/>
</svg>
