<svg width="100" height="100" viewBox="0 0 100 100" fill="none" xmlns="http://www.w3.org/2000/svg">
<path d="M50 10V32.5C50 36.6421 53.3579 40 57.5 40H80V82.5C80 86.6421 76.6421 90 72.5 90H48.7142C52.6409 85.2453 55 79.1481 55 72.5C55 57.3122 42.6878 45 27.5 45C24.8999 45 22.3842 45.3608 20 46.0352V17.5C20 13.3579 23.3579 10 27.5 10H50ZM55 11.25V32.5C55 33.8807 56.1193 35 57.5 35H78.75L55 11.25ZM27.5 95C39.9264 95 50 84.9264 50 72.5C50 60.0736 39.9264 50 27.5 50C15.0736 50 5 60.0736 5 72.5C5 84.9264 15.0736 95 27.5 95ZM39.2676 70.7325C40.2439 71.7088 40.2439 73.2917 39.2676 74.268C38.2913 75.2444 36.7084 75.2444 35.7321 74.268L29.9999 68.5358L29.9999 82.5003C29.9999 83.881 28.8806 85.0003 27.4999 85.0003C26.1192 85.0003 24.9999 83.881 24.9999 82.5003V68.5358L19.2676 74.268C18.2913 75.2444 16.7084 75.2444 15.7321 74.268C14.7558 73.2917 14.7558 71.7088 15.7321 70.7325L25.7321 60.7325C25.9718 60.4928 26.248 60.312 26.5429 60.19C26.8333 60.0695 27.1514 60.0023 27.4849 60.0003L27.4999 60.0003L27.5149 60.0003C27.8484 60.0023 28.1664 60.0695 28.4568 60.19C28.7473 60.3102 29.0198 60.4875 29.257 60.7219L29.2696 60.7345L39.2676 70.7325Z" fill="#585D47"/>
</svg>
